# This file uses centimeters as units for non-parametric coordinates.

mtllib Door_L.mtl
g default
v 0.000240 -0.001272 0.029686
v 0.004042 2.956357 0.029686
v 0.190546 3.322304 0.029686
v 0.710770 3.616713 0.029686
v 1.443675 3.773545 0.029686
v 1.856193 3.773545 0.029686
v 1.867989 -0.001272 0.029686
v 0.000240 -0.001272 -0.030903
v 1.867989 -0.001272 -0.030903
v 0.004042 2.956357 -0.030903
v 0.190546 3.322304 -0.030903
v 0.710770 3.616713 -0.030903
v 1.443675 3.773545 -0.030903
v 1.856193 3.773545 -0.030903
vt 0.393700 0.893736
vt 0.393416 0.984383
vt 0.348939 0.964760
vt 0.348848 0.893736
vt 0.383510 0.984383
vt 0.353418 0.973547
vt 0.365911 0.980617
vt 0.932912 0.002283
vt 0.932912 0.047134
vt 0.931457 0.047134
vt 0.931457 0.002283
vt 0.003378 0.866003
vt 0.003378 0.937026
vt 0.001923 0.937026
vt 0.001923 0.866003
vt 0.003378 0.945814
vt 0.001923 0.945814
vt 0.959739 0.044849
vt 0.959739 0.032356
vt 0.961194 0.032356
vt 0.961194 0.044849
vt 0.959739 0.014756
vt 0.961194 0.014756
vt 0.959739 0.004850
vt 0.961194 0.004850
vt 0.961624 0.142138
vt 0.961624 0.051491
vt 0.963079 0.051491
vt 0.963079 0.142138
vt 0.572819 0.995176
vt 0.527967 0.995176
vt 0.528059 0.924153
vt 0.572535 0.904529
vt 0.532537 0.915365
vt 0.562629 0.904529
vt 0.545030 0.908296
vn 0.000000 0.000000 1.000000
vn 0.000000 0.000000 1.000000
vn 0.000000 0.000000 1.000000
vn 0.000000 0.000000 1.000000
vn 0.000000 0.000000 1.000000
vn 0.000000 0.000000 1.000000
vn 0.000000 0.000000 1.000000
vn 0.000000 0.000000 1.000000
vn 0.000000 0.000000 1.000000
vn 0.000000 0.000000 1.000000
vn 0.000000 0.000000 1.000000
vn 0.000000 -1.000000 0.000000
vn 0.000000 -1.000000 0.000000
vn 0.000000 -1.000000 0.000000
vn 0.000000 -1.000000 0.000000
vn -0.999999 0.001286 0.000000
vn -0.999999 0.001286 0.000000
vn -0.999999 0.001286 0.000000
vn -0.999999 0.001286 0.000000
vn -0.890964 0.454074 0.000000
vn -0.890964 0.454074 0.000000
vn -0.890964 0.454074 0.000000
vn -0.890964 0.454074 0.000000
vn -0.492523 0.870299 0.000000
vn -0.492523 0.870299 0.000000
vn -0.492523 0.870299 0.000000
vn -0.492523 0.870299 0.000000
vn -0.209250 0.977862 0.000000
vn -0.209250 0.977862 0.000000
vn -0.209250 0.977862 0.000000
vn -0.209250 0.977862 0.000000
vn 0.000000 1.000000 0.000000
vn 0.000000 1.000000 0.000000
vn 0.000000 1.000000 0.000000
vn 0.000000 1.000000 0.000000
vn 0.999995 0.003125 0.000000
vn 0.999995 0.003125 0.000000
vn 0.999995 0.003125 0.000000
vn 0.999995 0.003125 0.000000
vn 0.000000 0.000000 -1.000000
vn 0.000000 0.000000 -1.000000
vn 0.000000 0.000000 -1.000000
vn 0.000000 0.000000 -1.000000
vn 0.000000 0.000000 -1.000000
vn 0.000000 0.000000 -1.000000
vn 0.000000 0.000000 -1.000000
vn 0.000000 0.000000 -1.000000
vn -0.000004 0.000000 -1.000000
vn -0.000004 0.000000 -1.000000
vn -0.000004 0.000000 -1.000000
s off
g Door_L Fire_Department
usemtl lambert5SG
f 7/1/1 6/2/2 2/3/3 1/4/4
f 2/3/5 6/2/6 5/5/7 3/6/8
f 3/6/9 5/5/10 4/7/11
f 7/8/12 1/9/13 8/10/14 9/11/15
f 1/12/16 2/13/17 10/14/18 8/15/19
f 2/13/20 3/16/21 11/17/22 10/14/23
f 3/18/24 4/19/25 12/20/26 11/21/27
f 4/19/28 5/22/29 13/23/30 12/20/31
f 5/22/32 6/24/33 14/25/34 13/23/35
f 6/26/36 7/27/37 9/28/38 14/29/39
f 9/30/40 8/31/41 10/32/42 14/33/43
f 14/33/44 10/32/45 11/34/46 13/35/47
f 13/35/48 11/34/49 12/36/50
